<?xml version="1.0" standalone="no"?>
<!DOCTYPE svg PUBLIC "-//W3C//DTD SVG 20010904//EN"
 "http://www.w3.org/TR/2001/REC-SVG-20010904/DTD/svg10.dtd">
<svg version="1.0" xmlns="http://www.w3.org/2000/svg"
 width="16.000000pt" height="16.000000pt" viewBox="0 0 16.000000 16.000000"
 preserveAspectRatio="xMidYMid meet">
<metadata>
Created by potrace 1.11, written by Peter Selinger 2001-2013
</metadata>
<g transform="translate(0.000000,16.000000) scale(0.012500,-0.012500)"
fill="#000000" stroke="none">
<path d="M78 1220 c-17 -10 -18 -49 -18 -575 0 -562 0 -564 21 -575 15 -9 63
-9 182 -1 316 22 907 61 921 61 8 0 22 7 30 16 14 14 16 73 16 498 0 419 -2
485 -15 496 -15 13 -253 34 -735 64 -135 9 -276 19 -315 21 -42 4 -77 1 -87
-5z m280 -404 c70 -30 163 -70 206 -89 l80 -35 -40 -17 c-21 -10 -103 -44
-182 -76 -78 -32 -156 -66 -172 -74 -30 -15 -30 -15 -30 12 0 27 6 31 155 88
85 33 154 64 152 69 -2 5 -70 37 -152 71 -122 50 -151 66 -153 84 -2 11 0 21
3 21 4 0 64 -24 133 -54z m742 -300 c0 -18 -37 -23 -227 -31 -139 -6 -143 -6
-143 14 0 19 7 21 143 24 78 1 161 4 185 5 31 1 42 -2 42 -12z"/>
</g>
</svg>
